<?xml version="1.0" encoding="utf-8"?>
<!-- Generator: Adobe Illustrator 19.0.0, SVG Export Plug-In . SVG Version: 6.00 Build 0)  -->
<svg version="1.1" id="Layer_1" xmlns="http://www.w3.org/2000/svg" xmlns:xlink="http://www.w3.org/1999/xlink" x="0px" y="0px"
	 viewBox="0 0 96 96" style="enable-background:new 0 0 96 96;" xml:space="preserve">
<style type="text/css">
	.st0{fill:#34495E;}
	.st1{fill:#2C3E50;}
</style>
<g id="XMLID_1_">
	<path id="XMLID_3_" class="st0" d="M48,15.5c-1.1,0-2.2,0.2-3.2,0.4c-0.6,0.2-1.2,0.4-1.8,0.6l-0.7,0.3l-0.3,0.2
		c-0.5,0.3-1.1,0.6-1.6,0.9L40.2,18l-0.4,0.3c-0.4,0.3-0.9,0.6-1.3,0.9c-0.4,0.3-0.7,0.7-1,1.1c-1.2,1.2-2.1,2.4-3,3.9
		c-1.4,2.4-2.4,5.2-2.9,8h-0.6c-1.4,0.5-1.8,3.2-0.8,6c0.5,1.7,1.4,3,2.4,3.7c1.2,4.8,3.9,8.8,7.3,11.3v2.8l-2.7,2.7l-5.4,2.7
		c-4.4,2.2-8.7,4.3-13.1,6.5c-2.4,1.5-3.4,4.3-3.1,7c0.1,1.7-0.5,3.9,1.2,5c1.6,0.8,3.5,0.3,5.2,0.4c5.1,0,10.1,0,15.2,0
		c7.2,0,14.4,0,21.6,0c6.4,0,12.8,0,19.2,0c2.1-0.1,2.7-2.3,2.5-4.1c0-2.5,0.2-5.3-1.8-7.3c-1.6-1.6-3.9-2.3-5.8-3.4
		c-2.9-1.4-5.8-2.8-8.6-4.2l-5.4-2.7l-2.7-2.7v-2.8c3.4-2.5,6-6.5,7.3-11.3c0.9-0.7,1.8-2.1,2.4-3.7c0.9-2.8,0.6-5.5-0.8-6h-0.6
		c-0.4-2.8-1.5-5.6-2.9-8c-0.8-1.5-1.8-2.7-3-3.9c-0.3-0.4-0.7-0.8-1-1.1h-0.1c-1.1-0.9-2.2-1.7-3.5-2.3c-0.3-0.2-0.6-0.3-0.9-0.4
		l-0.7-0.3c-0.7-0.2-1.4-0.5-2.1-0.6H50C49.4,15.6,48.7,15.5,48,15.5z"/>
	<path id="XMLID_4_" class="st1" d="M15.5,77.7c0.1,0.8,0.3,1.6,1.2,2.2c1.6,0.8,3.5,0.3,5.2,0.5h15.2h21.6H78
		c1.6-0.3,2.3-1.4,2.5-2.7H15.5z"/>
</g>
</svg>
