<svg xmlns="http://www.w3.org/2000/svg" xmlns:xlink="http://www.w3.org/1999/xlink" width="145.77" height="67.08" viewBox="0 0 145.77 67.08"><defs><style>.a{fill:none;}.b{clip-path:url(#a);}.c{fill:#4e92ce;}.d{fill:#ed1d24;}</style><clipPath id="a"><rect class="a" width="145.769" height="67.08"/></clipPath></defs><g class="b"><g transform="translate(0.164 54.988)"><path class="c" d="M182.194-209.293l.706-1.545a4.758,4.758,0,0,0,2.458.665c1.412,0,2.078-.678,2.078-1.98v-.352a2.848,2.848,0,0,1-2.376,1.179,3.194,3.194,0,0,1-3.232-3.389v-.027a3.2,3.2,0,0,1,3.232-3.389,2.949,2.949,0,0,1,2.35,1.084V-218h2.064v5.626a3.893,3.893,0,0,1-.924,2.86,4.272,4.272,0,0,1-3.137.976A6.913,6.913,0,0,1,182.194-209.293Zm5.242-5.422v-.027a1.68,1.68,0,0,0-1.779-1.681,1.669,1.669,0,0,0-1.766,1.681v.027a1.662,1.662,0,0,0,1.766,1.681A1.68,1.68,0,0,0,187.436-214.716Z" transform="translate(-181.827 220.627)"/><path class="c" d="M197.889-214.323v-.027a3.621,3.621,0,0,1,3.6-3.782c2.431,0,3.545,1.885,3.545,3.945,0,.163-.014.352-.027.543H199.94a1.687,1.687,0,0,0,1.779,1.423,2.389,2.389,0,0,0,1.766-.745l1.182,1.044a3.645,3.645,0,0,1-2.975,1.355A3.638,3.638,0,0,1,197.889-214.323Zm5.134-.61a1.561,1.561,0,0,0-1.535-1.546,1.622,1.622,0,0,0-1.576,1.546Z" transform="translate(-189.006 220.627)"/><path class="c" d="M213.093-218h2.064v1.03a2.576,2.576,0,0,1,2.132-1.166,2.385,2.385,0,0,1,2.472,2.7v4.7H217.7v-4.053c0-.976-.462-1.478-1.249-1.478s-1.29.5-1.29,1.478v4.053h-2.064Z" transform="translate(-195.802 220.627)"/><path class="c" d="M227.839-214.183v-3.443h-.869v-1.762h.869v-1.858H229.9v1.858h1.711v1.762H229.9v3.1c0,.475.2.705.665.705a2.108,2.108,0,0,0,1.019-.258v1.654a3.047,3.047,0,0,1-1.63.42C228.694-212,227.839-212.5,227.839-214.183Z" transform="translate(-202.005 222.019)"/><path class="c" d="M236.646-214.323v-.027a3.62,3.62,0,0,1,3.6-3.782c2.432,0,3.545,1.885,3.545,3.945,0,.163-.014.352-.028.543H238.7a1.686,1.686,0,0,0,1.779,1.423,2.389,2.389,0,0,0,1.766-.745l1.182,1.044a3.645,3.645,0,0,1-2.975,1.355A3.638,3.638,0,0,1,236.646-214.323Zm5.134-.61a1.561,1.561,0,0,0-1.535-1.546,1.622,1.622,0,0,0-1.576,1.546Z" transform="translate(-206.329 220.627)"/><path class="c" d="M258.136-214.323v-.027a3.734,3.734,0,0,1,3.816-3.782,3.584,3.584,0,0,1,2.907,1.22l-1.264,1.356a2.126,2.126,0,0,0-1.657-.8,1.858,1.858,0,0,0-1.765,1.979v.027a1.863,1.863,0,0,0,1.847,2.006,2.3,2.3,0,0,0,1.67-.773L264.9-211.9a3.668,3.668,0,0,1-2.974,1.328A3.714,3.714,0,0,1,258.136-214.323Z" transform="translate(-215.935 220.627)"/><path class="c" d="M272.234-213.183v-4.7H274.3v4.054c0,.976.462,1.477,1.25,1.477s1.29-.5,1.29-1.477v-4.054H278.9v7.266h-2.064v-1.03a2.576,2.576,0,0,1-2.132,1.166A2.385,2.385,0,0,1,272.234-213.183Z" transform="translate(-222.236 220.517)"/><path class="c" d="M287.241-222.643h2.173v1.83h-2.173Zm.054,2.63h2.064v7.266H287.3Z" transform="translate(-228.944 222.643)"/><path class="c" d="M293.528-216.366v-.027c0-2.427,1.589-3.755,3.314-3.755a2.8,2.8,0,0,1,2.268,1.084v-3.579h2.064v9.9H299.11v-1.044a2.674,2.674,0,0,1-2.268,1.18A3.423,3.423,0,0,1,293.528-216.366Zm5.609,0v-.027a1.844,1.844,0,0,0-1.766-2.006,1.846,1.846,0,0,0-1.779,2.006v.027a1.855,1.855,0,0,0,1.779,2.006A1.845,1.845,0,0,0,299.137-216.366Z" transform="translate(-231.754 222.643)"/><path class="c" d="M309.443-212.775v-.027c0-1.586,1.208-2.318,2.934-2.318a5.178,5.178,0,0,1,1.779.3v-.122c0-.854-.53-1.329-1.562-1.329a5.365,5.365,0,0,0-2.01.393l-.516-1.572a6.427,6.427,0,0,1,2.825-.583,3.367,3.367,0,0,1,2.459.814,3.162,3.162,0,0,1,.787,2.318v4.216h-2v-.786a2.8,2.8,0,0,1-2.2.922A2.251,2.251,0,0,1,309.443-212.775Zm4.74-.475v-.366a3.208,3.208,0,0,0-1.317-.271c-.883,0-1.426.352-1.426,1v.027c0,.556.461.881,1.127.881C313.531-211.975,314.183-212.5,314.183-213.249Z" transform="translate(-238.868 220.583)"/><path class="c" d="M324.3-218h2.064v1.03a2.577,2.577,0,0,1,2.133-1.166,2.384,2.384,0,0,1,2.471,2.7v4.7h-2.064v-4.053c0-.976-.461-1.478-1.249-1.478s-1.29.5-1.29,1.478v4.053H324.3Z" transform="translate(-245.509 220.627)"/><path class="c" d="M338.547-216.366v-.027c0-2.427,1.589-3.755,3.314-3.755a2.8,2.8,0,0,1,2.268,1.084v-3.579h2.064v9.9h-2.064v-1.044a2.675,2.675,0,0,1-2.268,1.18A3.423,3.423,0,0,1,338.547-216.366Zm5.609,0v-.027a1.844,1.844,0,0,0-1.765-2.006,1.846,1.846,0,0,0-1.78,2.006v.027a1.855,1.855,0,0,0,1.78,2.006A1.845,1.845,0,0,0,344.156-216.366Z" transform="translate(-251.876 222.643)"/><path class="c" d="M354.61-214.323v-.027a3.818,3.818,0,0,1,3.953-3.782,3.781,3.781,0,0,1,3.925,3.755v.027a3.818,3.818,0,0,1-3.953,3.782A3.781,3.781,0,0,1,354.61-214.323Zm5.84,0v-.027a1.932,1.932,0,0,0-1.915-2.006,1.863,1.863,0,0,0-1.888,1.979v.027a1.933,1.933,0,0,0,1.916,2.006A1.863,1.863,0,0,0,360.45-214.323Z" transform="translate(-259.056 220.627)"/><path class="c" d="M377.744-209.293l.707-1.545a4.758,4.758,0,0,0,2.458.665c1.412,0,2.078-.678,2.078-1.98v-.352a2.848,2.848,0,0,1-2.376,1.179,3.194,3.194,0,0,1-3.232-3.389v-.027a3.2,3.2,0,0,1,3.232-3.389,2.949,2.949,0,0,1,2.35,1.084V-218h2.064v5.626a3.893,3.893,0,0,1-.924,2.86,4.274,4.274,0,0,1-3.138.976A6.913,6.913,0,0,1,377.744-209.293Zm5.242-5.422v-.027a1.68,1.68,0,0,0-1.779-1.681,1.669,1.669,0,0,0-1.765,1.681v.027a1.662,1.662,0,0,0,1.765,1.681A1.681,1.681,0,0,0,382.986-214.716Z" transform="translate(-269.232 220.627)"/><path class="c" d="M393.439-214.323v-.027a3.621,3.621,0,0,1,3.6-3.782c2.431,0,3.545,1.885,3.545,3.945,0,.163-.014.352-.027.543H395.49a1.687,1.687,0,0,0,1.779,1.423,2.387,2.387,0,0,0,1.765-.745l1.182,1.044a3.644,3.644,0,0,1-2.974,1.355A3.638,3.638,0,0,1,393.439-214.323Zm5.134-.61a1.56,1.56,0,0,0-1.535-1.546,1.622,1.622,0,0,0-1.576,1.546Z" transform="translate(-276.411 220.627)"/><path class="c" d="M408.642-218h2.064v1.03a2.577,2.577,0,0,1,2.132-1.166,2.385,2.385,0,0,1,2.473,2.7v4.7h-2.064v-4.053c0-.976-.462-1.478-1.249-1.478s-1.291.5-1.291,1.478v4.053h-2.064Z" transform="translate(-283.207 220.627)"/><path class="c" d="M423.388-214.183v-3.443h-.869v-1.762h.869v-1.858h2.064v1.858h1.711v1.762h-1.711v3.1c0,.475.2.705.665.705a2.1,2.1,0,0,0,1.019-.258v1.654a3.047,3.047,0,0,1-1.63.42C424.244-212,423.388-212.5,423.388-214.183Z" transform="translate(-289.409 222.019)"/><path class="c" d="M432.2-214.323v-.027a3.621,3.621,0,0,1,3.6-3.782c2.431,0,3.545,1.885,3.545,3.945,0,.163-.014.352-.027.543h-5.066a1.687,1.687,0,0,0,1.779,1.423,2.389,2.389,0,0,0,1.766-.745l1.182,1.044A3.645,3.645,0,0,1,436-210.568,3.638,3.638,0,0,1,432.2-214.323Zm5.134-.61a1.561,1.561,0,0,0-1.535-1.546,1.622,1.622,0,0,0-1.576,1.546Z" transform="translate(-293.734 220.627)"/></g><path class="c" d="M430.529-253.465a2.535,2.535,0,0,1,.76-1.864,3.259,3.259,0,0,1,2.478-1.022,3.955,3.955,0,0,1,2.289.635,1.436,1.436,0,0,1,.739,1.125,1.167,1.167,0,0,1-.311.786.975.975,0,0,1-.762.357,4.565,4.565,0,0,1-1.023-.352,2.929,2.929,0,0,0-1.056-.262q-.593.038-.614.421a.522.522,0,0,0,.233.421,2.365,2.365,0,0,0,.578.316l.541.212a5.551,5.551,0,0,1,1.971,1.108,2.255,2.255,0,0,1,.636,1.55,2.974,2.974,0,0,1-.252,1.2,2.74,2.74,0,0,1-.719.983,3.5,3.5,0,0,1-2.375.773,5.946,5.946,0,0,1-1.42-.2,3.861,3.861,0,0,1-1.372-.623,1.291,1.291,0,0,1-.585-1.079,1.144,1.144,0,0,1,.322-.767.962.962,0,0,1,.735-.363,1.506,1.506,0,0,1,.346.043,2.248,2.248,0,0,1,.326.1c.1.039.207.088.336.149s.242.116.346.167a2.664,2.664,0,0,0,1.021.279.987.987,0,0,0,.524-.153.462.462,0,0,0,.249-.41.487.487,0,0,0-.245-.458,5.686,5.686,0,0,0-.76-.332l-.7-.262a5.036,5.036,0,0,1-1.656-.968,1.986,1.986,0,0,1-.582-1.514" transform="translate(-292.709 292.697)"/><path class="c" d="M401.765-251.821a4.542,4.542,0,0,0-4.683-4.811,4.74,4.74,0,0,0-4.9,4.791,4.875,4.875,0,0,0,5.157,4.791,6.3,6.3,0,0,0,3.026-.684,1.1,1.1,0,0,0,.54-.672,1.065,1.065,0,0,0-.108-.838l-.117-.2a1.125,1.125,0,0,0-1.482-.423,3.288,3.288,0,0,1-1.582.373,2.578,2.578,0,0,1-2.511-1.493h5.816a.839.839,0,0,0,.844-.835m-2.809-1.105h-3.837a2.017,2.017,0,0,1,2.063-1.377,1.751,1.751,0,0,1,1.774,1.377" transform="translate(-275.686 292.823)"/><path class="c" d="M420.369-253.756a4.506,4.506,0,0,0-1.079-1.576,3.8,3.8,0,0,0-2.672-.988,2.911,2.911,0,0,0-2.167,1,1.433,1.433,0,0,0-.3-.585,1.208,1.208,0,0,0-.967-.418,1.24,1.24,0,0,0-.988.412,1.522,1.522,0,0,0-.357,1.031v9.835a1.518,1.518,0,0,0,.359,1.024,1.209,1.209,0,0,0,.967.419,1.238,1.238,0,0,0,.988-.413,1.519,1.519,0,0,0,.357-1.031v-2.778a3.465,3.465,0,0,0,2.09.755,3.725,3.725,0,0,0,2.241-.682,4.251,4.251,0,0,0,1.425-1.786,5.843,5.843,0,0,0,.479-2.349,4.879,4.879,0,0,0-.377-1.873m-2.5,3.106a2.1,2.1,0,0,1-.6.856,1.408,1.408,0,0,1-.937.337,1.7,1.7,0,0,1-1.037-.32,1.988,1.988,0,0,1-.654-.836,2.734,2.734,0,0,1-.22-1.079,2.731,2.731,0,0,1,.22-1.081,1.991,1.991,0,0,1,.654-.834,1.7,1.7,0,0,1,1.037-.32,1.414,1.414,0,0,1,.937.335,2.085,2.085,0,0,1,.6.858,2.848,2.848,0,0,1,.2,1.042,2.826,2.826,0,0,1-.2,1.042" transform="translate(-284.473 292.683)"/><path class="c" d="M315.924-295.106H299.039c.83,2.878,3.652,5.05,7.636,5.05a9.633,9.633,0,0,0,4.634-1.094,2.694,2.694,0,0,1,3.568,1.019l.328.56a2.613,2.613,0,0,1-1.04,3.627,17.058,17.058,0,0,1-8.264,1.861c-8.08,0-14-5.647-14-12.977,0-7.276,5.478-12.977,13.282-12.977,7.692,0,12.672,5.539,12.672,13.032v.028a1.906,1.906,0,0,1-1.93,1.873m-16.83-4.561h11.842a5.3,5.3,0,0,0-5.479-4.724,6.135,6.135,0,0,0-6.363,4.724" transform="translate(-230.863 316.694)"/><path class="d" d="M366.289-318.584a3.489,3.489,0,0,1-3.49,3.489,3.489,3.489,0,0,1-3.489-3.489,3.489,3.489,0,0,1,3.489-3.489,3.489,3.489,0,0,1,3.49,3.489" transform="translate(-260.992 322.073)"/><path class="d" d="M361.1-284.539h0a3.625,3.625,0,0,1-1.729-4.826l8.863-18.77a3.625,3.625,0,0,1,4.826-1.729,3.624,3.624,0,0,1,1.73,4.825l-8.863,18.77a3.626,3.626,0,0,1-4.826,1.73" transform="translate(-260.865 316.772)"/><path class="d" d="M356.985-284.539h0a3.625,3.625,0,0,0,1.73-4.826l-8.863-18.77a3.625,3.625,0,0,0-4.826-1.729,3.624,3.624,0,0,0-1.73,4.825l8.863,18.77a3.626,3.626,0,0,0,4.826,1.73" transform="translate(-253.68 316.772)"/><path class="c" d="M416.454-310.038h0a3.626,3.626,0,0,0-3.553,2.908l-.128-.03a11.63,11.63,0,0,0-7.914-2.878c-7.028,0-12.4,5.593-12.4,12.977s5.2,12.977,12.23,12.977a10.511,10.511,0,0,0,8.138-3.593,3.624,3.624,0,0,0,3.623,3.593,3.625,3.625,0,0,0,3.625-3.625v-18.7a3.625,3.625,0,0,0-3.625-3.625M406.3-290.545a6.4,6.4,0,0,1-6.531-6.516,6.37,6.37,0,0,1,6.531-6.516,6.185,6.185,0,0,1,6.531,6.516,6.184,6.184,0,0,1-6.531,6.516" transform="translate(-275.813 316.694)"/><path class="c" d="M262.356-308.44c-.065-.1-.135-.19-.208-.279a3.649,3.649,0,0,0-.468-.47,3.614,3.614,0,0,0-.815-.515,3.611,3.611,0,0,0-1.514-.335c-.125,0-.249.007-.37.019s-.242.031-.36.055a3.617,3.617,0,0,0-1.833.988,3.677,3.677,0,0,0-.442.536,3.606,3.606,0,0,0-.619,2.027v9.656a5.812,5.812,0,0,1-5.921,6.143c-3.32,0-5.589-2.49-5.589-6.364v-9.435a3.625,3.625,0,0,0-3.625-3.625,3.625,3.625,0,0,0-3.625,3.625v10.431c0,7.25,4.372,11.9,11.18,11.9a11.1,11.1,0,0,0,7.694-2.741,3.623,3.623,0,0,0,3.512,2.741,3.625,3.625,0,0,0,3.625-3.625v-18.7a3.607,3.607,0,0,0-.619-2.027" transform="translate(-206.309 316.694)"/><path class="c" d="M196.362-310.038a11.1,11.1,0,0,0-7.694,2.741,3.623,3.623,0,0,0-3.512-2.741,3.625,3.625,0,0,0-3.625,3.625v18.7a3.619,3.619,0,0,0,.284,1.411c.046.108.1.214.153.317a3.628,3.628,0,0,0,.882,1.069,3.606,3.606,0,0,0,.578.39,3.6,3.6,0,0,0,1.728.437,3.6,3.6,0,0,0,1.728-.437c.1-.056.2-.117.3-.181a3.638,3.638,0,0,0,.513-.421l.024-.022.021-.023a3.622,3.622,0,0,0,.6-.812,3.607,3.607,0,0,0,.438-1.728v-9.657a5.811,5.811,0,0,1,5.921-6.142c3.32,0,5.589,2.49,5.589,6.364v9.435a3.625,3.625,0,0,0,3.625,3.625,3.624,3.624,0,0,0,3.625-3.625V-298.14c0-7.25-4.372-11.9-11.179-11.9" transform="translate(-181.531 316.694)"/></g></svg>